<?xml version="1.0" encoding="UTF-8"?>
<!-- Generated by Pixelmator Pro 3.7.1 -->
<svg width="550" height="550" viewBox="0 0 550 550" xmlns="http://www.w3.org/2000/svg">
    <path id="Oval" fill="#000000" fill-rule="evenodd" stroke="none" d="M 550 275 C 550 123.121704 426.878296 0 275 0 C 123.121696 0 0 123.121704 0 275 C 0 426.878296 123.121696 550 275 550 C 426.878296 550 550 426.878296 550 275 Z"/>
    <g id="wrench-951-copy">
        <path id="Path-copy-3" fill="#ff004f" stroke="none" d="M 112 389.053711 C 112 367.258057 120.521721 345.89917 136.594467 329.830444 C 158.564056 307.856812 191.251526 299.937744 220.844955 309.142944 L 312.14093 217.846985 C 302.935699 188.269745 310.84671 155.574188 332.824371 133.592438 C 356.820251 109.596558 392.61792 102.429749 424.023254 115.335663 L 432.350861 118.757294 L 381.823212 169.284943 C 372.480469 178.631744 372.47641 193.83493 381.823212 203.181702 C 391.169983 212.524445 406.377228 212.524445 415.719971 203.181702 L 466.243591 152.658112 L 469.665222 160.985687 C 482.571167 192.395081 475.400269 228.188721 451.408417 252.18457 C 429.434784 274.158203 396.743286 282.073273 367.157928 272.868042 L 275.861969 364.159973 C 285.075287 393.741272 277.156189 426.436829 255.178528 448.41452 C 231.182632 472.414429 195.384964 479.57312 163.979599 466.671265 L 155.652039 463.245605 L 206.179688 412.722015 C 210.681183 408.22052 213.160446 402.202332 213.160446 395.771606 C 213.160446 389.340881 210.681183 383.326752 206.179688 378.821167 C 196.832901 369.478455 181.625656 369.478455 172.282928 378.821167 L 121.759331 429.348846 L 118.333664 421.017212 C 114.074821 410.647217 112.004044 399.795868 112 389.053711 Z M 126.46711 407.6745"/>
        <path id="Path-copy-2" fill="#00f7ef" stroke="none" d="M 77 354.053711 C 77 332.258057 85.521721 310.89917 101.594467 294.830444 C 123.564064 272.856812 156.251526 264.937744 185.844955 274.142944 L 277.14093 182.846985 C 267.935699 153.269745 275.84671 120.574188 297.824371 98.592438 C 321.820251 74.596558 357.61792 67.429749 389.023254 80.335663 L 397.350861 83.757294 L 346.823212 134.284943 C 337.480469 143.631744 337.47641 158.83493 346.823212 168.181702 C 356.169983 177.524445 371.377228 177.524445 380.719971 168.181702 L 431.243591 117.658112 L 434.665222 125.985687 C 447.571167 157.395081 440.400269 193.188721 416.408417 217.18457 C 394.434784 239.158203 361.743286 247.073273 332.157928 237.868042 L 240.861969 329.159973 C 250.075287 358.741272 242.156204 391.436829 220.178528 413.41449 C 196.182632 437.414429 160.384964 444.57312 128.979599 431.671265 L 120.652039 428.245605 L 171.179688 377.722015 C 175.681183 373.22052 178.160446 367.202332 178.160446 360.771606 C 178.160446 354.340881 175.681183 348.326752 171.179688 343.821167 C 161.832901 334.478455 146.625656 334.478455 137.282928 343.821167 L 86.759331 394.348846 L 83.333664 386.017212 C 79.074821 375.647217 77.004044 364.795868 77 354.053711 Z M 91.46711 372.6745"/>
        <path id="Path-copy" fill="#ffffff" stroke="none" d="M 93 373.053711 C 93 351.258057 101.521721 329.89917 117.594467 313.830444 C 139.564056 291.856812 172.251526 283.937744 201.844955 293.142944 L 293.14093 201.846985 C 283.935699 172.269745 291.84671 139.574188 313.824371 117.592438 C 337.820251 93.596558 373.61792 86.429749 405.023254 99.335663 L 413.350861 102.757294 L 362.823212 153.284943 C 353.480469 162.631744 353.47641 177.83493 362.823212 187.181702 C 372.169983 196.524445 387.377228 196.524445 396.719971 187.181702 L 447.243591 136.658112 L 450.665222 144.985687 C 463.571167 176.395081 456.400269 212.188721 432.408417 236.18457 C 410.434784 258.158203 377.743286 266.073273 348.157928 256.868042 L 256.861969 348.159973 C 266.075287 377.741272 258.156189 410.436829 236.178528 432.41452 C 212.182632 456.414429 176.384964 463.57312 144.979599 450.671265 L 136.652039 447.245605 L 187.179688 396.722015 C 191.681183 392.22052 194.160446 386.202332 194.160446 379.771606 C 194.160446 373.340881 191.681183 367.326752 187.179688 362.821167 C 177.832901 353.478455 162.625656 353.478455 153.282928 362.821167 L 102.759331 413.348846 L 99.333664 405.017212 C 95.074821 394.647217 93.004044 383.795868 93 373.053711 Z M 107.46711 391.6745"/>
    </g>
</svg>
