<?xml version="1.0" encoding="UTF-8"?>
<!-- Generated by Pixelmator Pro 3.6.17 -->
<svg width="750" height="750" viewBox="0 0 750 750" xmlns="http://www.w3.org/2000/svg" xmlns:xlink="http://www.w3.org/1999/xlink">
    <path id="Path" fill="#1185fe" stroke="none" visibility="hidden" d="M 203.346283 219.765442 C 272.531769 271.705505 346.948608 377.018402 374.270721 433.535431 C 401.59491 377.022583 476.007599 271.704498 545.195129 219.765442 C 595.115723 182.287537 676 153.289246 676 245.563293 C 676 263.991638 665.434265 400.371216 659.237366 422.511932 C 637.697021 499.488251 559.204773 519.12146 489.384613 507.238525 C 611.428894 528.01001 642.475769 596.812622 575.426331 665.615173 C 448.086212 796.28479 392.40152 632.829712 378.126587 590.946594 C 375.510925 583.268433 374.286926 579.676453 374.268951 582.730774 C 374.250824 579.676331 373.026947 583.268372 370.411285 590.946594 C 356.142609 632.829712 300.458984 796.289001 173.111542 665.615173 C 106.061058 596.812622 137.106918 528.005859 259.15329 507.238525 C 189.331055 519.12146 110.837738 499.488159 89.300514 422.511932 C 83.103409 400.369141 72.537895 263.989594 72.537895 245.563293 C 72.537895 153.289246 153.424225 182.287537 203.342743 219.765442 Z"/>
    <path id="Path-copy" fill="#1d9bf0" stroke="none" d="M 642.394104 242.606506 C 642.790588 248.341949 642.790588 254.077515 642.790588 259.865875 C 642.790588 436.23938 508.521515 639.651672 263.00473 639.651672 L 263.00473 639.545959 C 190.478302 639.651672 119.458427 618.876953 58.403011 579.70636 C 68.948944 580.975037 79.547745 581.609375 90.172974 581.635803 C 150.276871 581.688721 208.662766 561.521912 255.947678 524.386475 C 198.830475 523.302795 148.743881 486.061615 131.246613 431.693237 C 151.254822 435.552155 171.870941 434.759216 191.509109 429.393738 C 129.237869 416.812622 84.437462 362.100647 84.437462 298.560699 L 84.437462 296.869171 C 102.991966 307.203644 123.76667 312.939148 145.01712 313.573486 C 86.36692 274.376434 68.288177 196.352417 103.705597 135.349854 C 171.474472 218.739319 271.462616 269.433868 378.798584 274.799316 C 368.041199 228.439453 382.736786 179.859497 417.414154 147.270142 C 471.174622 96.734253 555.727112 99.324463 606.263062 153.058533 C 636.156372 147.164429 664.807495 136.195618 691.027039 120.654175 C 681.062561 151.551941 660.208557 177.797852 632.350342 194.475769 C 658.807739 191.356934 684.657166 184.273438 709 173.463196 C 691.079834 200.317017 668.507874 223.708374 642.394104 242.606506 Z"/>
    <path id="Path-copy-3" fill="#ffffff" stroke="#000000" stroke-width="60.5" visibility="hidden" d="M 547.179626 121.358215 L 633.937378 121.358215 L 443.44751 334.656403 L 666 624 L 491.352875 624 L 354.615112 448.168121 L 198.073975 624 L 111.316231 624 L 313.122284 395.863678 L 100 121.358215 L 278.985016 121.358215 L 402.520508 281.981018 Z M 516.814392 573.921265 L 564.908325 573.921265 L 253.712097 169.582153 L 202.034653 169.582153 Z"/>
    <path id="Path-copy-4" fill="#ffffff" stroke="none" visibility="hidden" d="M 547.179626 121.358215 L 633.937378 121.358215 L 443.44751 334.656403 L 666 624 L 491.352875 624 L 354.615112 448.168121 L 198.073975 624 L 111.316231 624 L 313.122284 395.863678 L 100 121.358215 L 278.985016 121.358215 L 402.520508 281.981018 Z M 516.814392 573.921265 L 564.908325 573.921265 L 253.712097 169.582153 L 202.034653 169.582153 Z"/>
    <g id="wrench-951-copy">
        <path id="path1" fill="#6363ff" stroke="#000000" stroke-width="60.525162" d="M 262 601.839661 C 262 575.05719 272.471466 548.811523 292.221619 529.066284 C 319.217773 502.065155 359.384033 492.334229 395.748352 503.645569 L 507.932556 391.461365 C 496.621185 355.116943 506.342194 314.940735 533.348328 287.929657 C 562.834351 258.443573 606.822449 249.637024 645.413208 265.495789 L 655.646118 269.700287 L 593.557922 331.788483 C 582.077576 343.273804 582.072632 361.955414 593.557922 373.440704 C 605.043213 384.921051 623.729797 384.921051 635.210144 373.440704 L 697.293457 311.357483 L 701.497925 321.590363 C 717.356689 360.186157 708.545105 404.16925 679.064026 433.655304 C 652.062927 460.656433 611.891663 470.382416 575.537292 459.071075 L 463.353088 571.250305 C 474.674377 607.599731 464.94342 647.77594 437.937347 674.782043 C 408.451233 704.273071 364.463196 713.069641 325.872375 697.215881 L 315.639496 693.006409 L 377.727722 630.923218 C 383.259155 625.391785 386.305634 617.996643 386.305634 610.094604 C 386.305634 602.192566 383.259155 594.802368 377.727722 589.265991 C 366.242401 577.785645 347.555786 577.785645 336.07547 589.265991 L 273.992249 651.354187 L 269.782776 641.116333 C 264.54953 628.373657 262.004974 615.039612 262 601.839661 Z M 279.77713 624.720825"/>
        <path id="path2" fill="#6363ff" stroke="none" d="M 262 601.839661 C 262 575.05719 272.471466 548.811523 292.221619 529.066284 C 319.217773 502.065155 359.384033 492.334229 395.748352 503.645569 L 507.932556 391.461365 C 496.621185 355.116943 506.342194 314.940735 533.348328 287.929657 C 562.834351 258.443573 606.822449 249.637024 645.413208 265.495789 L 655.646118 269.700287 L 593.557922 331.788483 C 582.077576 343.273804 582.072632 361.955414 593.557922 373.440704 C 605.043213 384.921051 623.729797 384.921051 635.210144 373.440704 L 697.293457 311.357483 L 701.497925 321.590363 C 717.356689 360.186157 708.545105 404.16925 679.064026 433.655304 C 652.062927 460.656433 611.891663 470.382416 575.537292 459.071075 L 463.353088 571.250305 C 474.674377 607.599731 464.94342 647.77594 437.937347 674.782043 C 408.451233 704.273071 364.463196 713.069641 325.872375 697.215881 L 315.639496 693.006409 L 377.727722 630.923218 C 383.259155 625.391785 386.305634 617.996643 386.305634 610.094604 C 386.305634 602.192566 383.259155 594.802368 377.727722 589.265991 C 366.242401 577.785645 347.555786 577.785645 336.07547 589.265991 L 273.992249 651.354187 L 269.782776 641.116333 C 264.54953 628.373657 262.004974 615.039612 262 601.839661 Z M 279.77713 624.720825"/>
        <mask id="mask1" maskUnits="userSpaceOnUse" maskContentUnits="userSpaceOnUse" mask-type="alpha">
            <path id="path3" fill="#6363ff" stroke="none" d="M 262 601.839661 C 262 575.05719 272.471466 548.811523 292.221619 529.066284 C 319.217773 502.065155 359.384033 492.334229 395.748352 503.645569 L 507.932556 391.461365 C 496.621185 355.116943 506.342194 314.940735 533.348328 287.929657 C 562.834351 258.443573 606.822449 249.637024 645.413208 265.495789 L 655.646118 269.700287 L 593.557922 331.788483 C 582.077576 343.273804 582.072632 361.955414 593.557922 373.440704 C 605.043213 384.921051 623.729797 384.921051 635.210144 373.440704 L 697.293457 311.357483 L 701.497925 321.590363 C 717.356689 360.186157 708.545105 404.16925 679.064026 433.655304 C 652.062927 460.656433 611.891663 470.382416 575.537292 459.071075 L 463.353088 571.250305 C 474.674377 607.599731 464.94342 647.77594 437.937347 674.782043 C 408.451233 704.273071 364.463196 713.069641 325.872375 697.215881 L 315.639496 693.006409 L 377.727722 630.923218 C 383.259155 625.391785 386.305634 617.996643 386.305634 610.094604 C 386.305634 602.192566 383.259155 594.802368 377.727722 589.265991 C 366.242401 577.785645 347.555786 577.785645 336.07547 589.265991 L 273.992249 651.354187 L 269.782776 641.116333 C 264.54953 628.373657 262.004974 615.039612 262 601.839661 Z M 279.77713 624.720825"/>
        </mask>
        <g id="Group" mask="url(#mask1)">
            <g id="1f3f3-fe0f-200d-1f308">
                <path id="path4" fill="#880082" stroke="none" d="M 724.742249 449.451385 C 757.522888 416.670776 757.522888 363.522858 724.742249 330.742218 L 309.260162 -84.739868 C 276.479492 -117.520508 223.331619 -117.520447 190.550995 -84.739868 L 183.131668 -77.320496 L 717.322937 456.870728 L 724.742249 449.451385 Z"/>
                <path id="path5" fill="#3558a0" stroke="none" d="M 651.587708 522.605957 L 117.396461 -11.585327 L 185.654236 -79.843079 L 719.845459 454.348145 Z"/>
                <path id="path6" fill="#138f3e" stroke="none" d="M 588.671875 585.52179 L 54.48061 51.330566 L 121.254517 -15.443359 L 655.44574 518.747864 Z"/>
                <path id="path7" fill="#fad220" stroke="none" d="M 524.420532 649.773132 L -9.770723 115.581848 L 57.003181 48.807983 L 591.194397 582.999207 Z"/>
                <path id="path8" fill="#ff7300" stroke="none" d="M 460.169189 714.024414 L -74.022057 179.833191 L -7.248154 113.059326 L 526.943115 647.250549 Z"/>
                <path id="path9" fill="#ff000e" stroke="none" d="M -76.544624 301.064941 L 338.937439 716.546997 C 371.718048 749.327637 424.865997 749.327637 457.646576 716.546997 L 462.543335 711.650269 L -71.647873 177.459045 L -76.544624 182.355774 C -109.325256 215.136414 -109.325287 268.284271 -76.544624 301.064941 Z"/>
            </g>
        </g>
    </g>
</svg>
